<?xml version="1.0" standalone="no"?>
<!DOCTYPE svg PUBLIC "-//W3C//DTD SVG 20010904//EN"
 "http://www.w3.org/TR/2001/REC-SVG-20010904/DTD/svg10.dtd">
<svg version="1.0" xmlns="http://www.w3.org/2000/svg"
 width="700.000000pt" height="700.000000pt" viewBox="0 0 700.000000 700.000000"
 preserveAspectRatio="xMidYMid meet">
<metadata>
Created by potrace 1.14, written by Peter Selinger 2001-2017
</metadata>
<g transform="translate(0.000000,700.000000) scale(0.100000,-0.100000)"
fill="#000000" stroke="none">
<path d="M1470 4367 l0 -183 373 -132 c204 -73 666 -237 1024 -365 359 -128
653 -234 653 -237 0 -3 -213 -80 -473 -172 -756 -268 -1541 -546 -1559 -553
-16 -6 -18 -25 -18 -186 0 -133 3 -179 12 -179 7 0 585 208 1285 462 l1273
462 -2 169 -3 169 -105 39 c-701 255 -2453 889 -2456 889 -2 0 -4 -82 -4 -183z"/>
<path d="M5535 4458 c-66 -3 -178 -18 -249 -33 -128 -25 -369 -98 -393 -117
-17 -13 -19 -338 -3 -338 6 0 37 13 70 30 134 67 286 113 460 136 490 65 804
-117 821 -476 l4 -75 -390 -6 c-352 -5 -400 -7 -492 -27 -291 -63 -472 -183
-567 -376 -55 -111 -70 -188 -70 -356 0 -165 13 -229 72 -350 53 -110 169
-224 283 -278 123 -59 183 -73 354 -79 222 -8 395 27 533 109 56 33 206 173
255 238 l26 35 1 -168 0 -167 183 2 182 3 3 655 c2 405 -1 703 -8 780 -25 292
-107 491 -265 638 -183 171 -441 241 -810 220z m711 -1275 c-18 -278 -77 -433
-221 -579 -127 -128 -264 -184 -455 -184 -208 0 -379 92 -441 237 -74 172 -31
406 92 503 55 44 120 70 229 94 125 27 213 33 514 35 l289 1 -7 -107z"/>
</g>
</svg>
